<svg data-v-38a88b70="" width="18" height="22" viewBox="0 0 20 27" fill="none" xmlns="http://www.w3.org/2000/svg" class="feather-bookmark-lcnactv"><link data-v-38a88b70="" xmlns="" type="text/css" id="dark-mode" rel="stylesheet" href=""></link> <style data-v-38a88b70="" xmlns="" type="text/css" id="dark-mode-custom-style"></style> <path data-v-38a88b70="" d="M18.6467 4.91424C17.322 2.65533 15.1397 1.00688 12.58 0.331554C10.0203 -0.343777 7.29283 0.00932471 4.99765 1.31318C2.70247 2.61703 1.02756 4.76484 0.341393 7.2841C-0.344778 9.80336 0.0139917 12.4877 1.33878 14.7466L7.79419 25.7473C8.01523 26.1286 8.33533 26.4452 8.72168 26.6646C9.10803 26.884 9.54671 26.9983 9.99276 26.9959C10.4388 26.9983 10.8775 26.884 11.2638 26.6646C11.6502 26.4452 11.9703 26.1286 12.1913 25.7473L18.6467 14.7466C19.5333 13.2552 20.0006 11.5584 20.0006 9.83043C20.0006 8.1025 19.5333 6.40569 18.6467 4.91424ZM17.3273 13.9975L10.8718 24.9981C10.785 25.1521 10.6573 25.2798 10.5023 25.3678C10.3474 25.4558 10.1711 25.5006 9.9922 25.4976C9.81334 25.5006 9.637 25.4558 9.48205 25.3678C9.3271 25.2798 9.19938 25.1521 9.11255 24.9981L2.65713 13.9975C1.91134 12.7304 1.51784 11.2923 1.51622 9.82794C1.51461 8.36359 1.90494 6.92466 2.64793 5.65597C3.39093 4.38728 4.46037 3.33359 5.74862 2.60096C7.03687 1.86832 8.49848 1.4826 9.98633 1.4826C11.4742 1.4826 12.9358 1.86832 14.224 2.60096C15.5123 3.33359 16.5817 4.38728 17.3247 5.65597C18.0677 6.92466 18.4581 8.36359 18.4564 9.82794C18.4548 11.2923 18.0613 12.7304 17.3155 13.9975H17.3273Z" fill="white"></path> <path data-v-38a88b70="" d="M9.99246 4.85522C8.93986 4.85522 7.91089 5.16243 7.03569 5.73798C6.16048 6.31353 5.47834 7.13159 5.07553 8.0887C4.67272 9.04582 4.56732 10.099 4.77267 11.1151C4.97803 12.1311 5.4849 13.0644 6.2292 13.797C6.9735 14.5295 7.9218 15.0284 8.95418 15.2305C9.98655 15.4326 11.0566 15.3289 12.0291 14.9324C13.0016 14.536 13.8328 13.8646 14.4176 13.0032C15.0024 12.1419 15.3145 11.1292 15.3145 10.0932C15.3145 8.70399 14.7538 7.37169 13.7557 6.38939C12.7576 5.40708 11.404 4.85522 9.99246 4.85522ZM9.99246 13.8329C9.24084 13.8329 8.50609 13.6135 7.88114 13.2025C7.25619 12.7915 6.7691 12.2074 6.48147 11.524C6.19384 10.8405 6.11858 10.0885 6.26522 9.36295C6.41185 8.63742 6.77379 7.97098 7.30526 7.4479C7.83674 6.92482 8.51388 6.5686 9.25106 6.42428C9.98824 6.27996 10.7523 6.35403 11.4468 6.63712C12.1412 6.92021 12.7347 7.3996 13.1523 8.01468C13.5698 8.62975 13.7927 9.35289 13.7927 10.0926C13.7927 11.0846 13.3923 12.0359 12.6796 12.7374C11.967 13.4388 11.0003 13.8329 9.99246 13.8329Z" fill="white"></path></svg>