<svg data-v-38a88b70="" width="19" height="12" viewBox="0 0 19 12" fill="none" xmlns="http://www.w3.org/2000/svg" class="feather-bookmark-prz"><link data-v-38a88b70="" xmlns="" type="text/css" id="dark-mode" rel="stylesheet" href=""></link><style data-v-38a88b70="" xmlns="" type="text/css" id="dark-mode-custom-style"></style> <g data-v-38a88b70="" clip-path="url(#clip0_72_23)"><path data-v-38a88b70="" d="M9.50473 0.000164896C11.8981 0.000164896 14.2909 0.000164896 16.6832 0.000164896C17.8008 0.000164896 18.7016 0.672164 18.9413 1.67701C18.9814 1.85975 19.0001 2.0461 18.9969 2.23269C19.0004 4.74364 19.0004 7.25459 18.9969 9.76554C18.9969 11.0696 18.0226 11.9967 16.6424 11.9974C12.8521 11.9974 9.06173 11.9974 5.27138 11.9974C4.30078 11.9974 3.33019 11.9974 2.3596 11.9974C0.969755 11.9974 -0.00231934 11.071 -0.00231934 9.75503C-0.00231934 7.2324 -0.00231934 4.70977 -0.00231934 2.18714C-0.00231934 1.0856 0.770145 0.214587 1.91808 0.0253901C2.08321 0.0032957 2.25006 -0.00514407 2.41674 0.000164896C4.78039 -0.000302257 7.14306 -0.000302257 9.50473 0.000164896ZM1.26286 4.69856V4.87865C1.26286 6.50808 1.26286 8.13727 1.26286 9.76624C1.26286 10.4221 1.67173 10.8082 2.37147 10.8089C7.12747 10.8089 11.8827 10.8089 16.6372 10.8089C17.3348 10.8089 17.7429 10.4207 17.7429 9.76484C17.7429 8.13494 17.7429 6.50551 17.7429 4.87654C17.7429 4.81978 17.7384 4.76303 17.7347 4.69646L1.26286 4.69856ZM1.26731 2.97897H17.7362C17.7362 2.65173 17.7525 2.3364 17.731 2.02317C17.7194 1.89431 17.6778 1.76946 17.6091 1.65754C17.5405 1.54562 17.4466 1.44938 17.334 1.3757C17.1114 1.21453 16.8517 1.1865 16.5794 1.1865C11.8615 1.1865 7.14305 1.1865 2.42416 1.1865C2.33808 1.1865 2.25052 1.1865 2.16444 1.19421C1.93495 1.21408 1.71998 1.30894 1.55662 1.46245C1.39326 1.61595 1.29173 1.81847 1.26954 2.03509C1.24728 2.34691 1.26286 2.65663 1.26286 2.97897H1.26731Z" fill="#fff"></path> <path data-v-38a88b70="" d="M1.26367 4.6991H17.737C17.7407 4.76917 17.7452 4.82243 17.7452 4.87918C17.7452 6.50862 17.7452 8.13805 17.7452 9.76748C17.7452 10.4234 17.3371 10.8116 16.6395 10.8116C11.8845 10.8116 7.12927 10.8116 2.37377 10.8116C1.67402 10.8116 1.2659 10.4248 1.26516 9.76888C1.26516 8.13992 1.26516 6.51072 1.26516 4.88129L1.26367 4.6991ZM14.4921 6.73121C14.3192 6.73121 14.1463 6.73121 13.9726 6.73121C13.8345 6.72918 13.6972 6.75299 13.5688 6.80128C13.4404 6.84958 13.3234 6.92139 13.2246 7.01259C13.1257 7.10379 13.047 7.21257 12.9929 7.33265C12.9388 7.45273 12.9103 7.58174 12.9093 7.71224C12.8982 8.05069 12.8989 8.38984 12.9093 8.72829C12.912 8.99068 13.0243 9.24144 13.2218 9.42606C13.4192 9.61068 13.6859 9.71424 13.9637 9.71422C14.31 9.7203 14.6563 9.7203 15.0026 9.71422C15.2783 9.71325 15.5428 9.61122 15.7403 9.42964C15.9379 9.24805 16.053 9.00112 16.0615 8.74091C16.0756 8.39755 16.0748 8.05209 16.0615 7.70803C16.0552 7.44503 15.9394 7.19498 15.739 7.01221C15.5387 6.82944 15.27 6.72871 14.9915 6.73192C14.8223 6.72981 14.6553 6.73192 14.4884 6.73192L14.4921 6.73121ZM4.54869 8.65402C3.99216 8.65402 3.43563 8.65402 2.87984 8.65402C2.6691 8.65402 2.60083 8.71989 2.59861 8.91469C2.59861 9.09548 2.59861 9.27697 2.59861 9.45776C2.59861 9.63855 2.67355 9.71422 2.86722 9.71422C3.98029 9.71422 5.09335 9.71422 6.20642 9.71422C6.39786 9.71422 6.47652 9.64415 6.48246 9.45916C6.48839 9.27416 6.48617 9.10879 6.48246 8.93431C6.47875 8.71848 6.40825 8.65402 6.17822 8.65402C5.6343 8.65332 5.09038 8.65472 4.54647 8.65472L4.54869 8.65402Z" fill="white"></path> <path data-v-38a88b70="" d="M1.26372 2.97949C1.26372 2.65715 1.24739 2.34883 1.26743 2.03981C1.28961 1.82319 1.39114 1.62067 1.55451 1.46717C1.71787 1.31367 1.93283 1.2188 2.16233 1.19893C2.24841 1.19192 2.33597 1.19122 2.42204 1.19122C7.14094 1.19122 11.8593 1.19122 16.5772 1.19122C16.8496 1.19122 17.1078 1.21925 17.3319 1.38042C17.4445 1.45411 17.5384 1.55034 17.607 1.66227C17.6756 1.77419 17.7173 1.89903 17.7289 2.02789C17.7504 2.34112 17.7341 2.65855 17.7341 2.98369L1.26372 2.97949Z" fill="white"></path> <path data-v-38a88b70="" d="M14.4884 6.73189C14.6553 6.73189 14.8223 6.73189 14.9892 6.73189C15.2679 6.72831 15.5368 6.82878 15.7375 7.01144C15.9382 7.1941 16.0543 7.44419 16.0608 7.70731C16.0741 8.05137 16.0749 8.39683 16.0608 8.74019C16.0525 9.00052 15.9374 9.24763 15.7398 9.42937C15.5423 9.6111 15.2777 9.71323 15.0019 9.7142C14.6556 9.72028 14.3093 9.72028 13.963 9.7142C13.6844 9.71514 13.4167 9.61189 13.2184 9.42702C13.0201 9.24215 12.9074 8.99069 12.9049 8.72757C12.8952 8.38912 12.8945 8.04997 12.9049 7.71151C12.9059 7.58101 12.9343 7.452 12.9884 7.33192C13.0426 7.21184 13.1213 7.10307 13.2202 7.01187C13.319 6.92067 13.436 6.84885 13.5644 6.80056C13.6928 6.75227 13.83 6.72845 13.9682 6.73049C14.1426 6.72979 14.3155 6.73189 14.4884 6.73189Z" fill="#fff"></path> <path data-v-38a88b70="" d="M4.54651 8.65469C5.09043 8.65469 5.63434 8.65469 6.179 8.65469C6.41126 8.65469 6.47582 8.71846 6.48324 8.93499C6.48324 9.10947 6.48843 9.28535 6.48324 9.45984C6.47805 9.63432 6.39716 9.7142 6.20572 9.7142C5.09265 9.7142 3.97959 9.7142 2.86652 9.7142C2.67359 9.7142 2.59865 9.64413 2.59568 9.45914C2.59271 9.27414 2.59568 9.09686 2.59568 8.91607C2.59568 8.72126 2.66988 8.6561 2.87691 8.65539C3.43419 8.65329 3.98998 8.65469 4.54651 8.65469Z" fill="#fff"></path></g> <defs data-v-38a88b70=""><clipPath data-v-38a88b70="" id="clip0_72_23"><rect data-v-38a88b70="" width="19" height="12" fill="white"></rect></clipPath></defs></svg>