<svg data-v-38a88b70="" width="19" height="19" viewBox="0 0 19 19" fill="none" xmlns="http://www.w3.org/2000/svg" class="feather-bookmark-sz"><link data-v-38a88b70="" xmlns="" type="text/css" id="dark-mode" rel="stylesheet" href=""></link><style data-v-38a88b70="" xmlns="" type="text/css" id="dark-mode-custom-style"></style> <g data-v-38a88b70="" clip-path="url(#clip0_72_47)"><path data-v-38a88b70="" d="M18.8209 16.0997L16.9792 14.2599C16.8645 14.1481 16.7104 14.0859 16.5502 14.0869C16.39 14.0878 16.2366 14.1518 16.1233 14.265C16.01 14.3782 15.9459 14.5314 15.945 14.6914C15.944 14.8515 16.0063 15.0054 16.1182 15.1199L16.9192 15.9201H3.04376V2.07981L3.8448 2.88C3.96234 2.99526 4.12047 3.05983 4.28518 3.05983C4.44988 3.05983 4.60801 2.99526 4.72555 2.88C4.78262 2.82383 4.82794 2.75689 4.85888 2.68306C4.88981 2.60924 4.90574 2.53 4.90574 2.44997C4.90574 2.36994 4.88981 2.29071 4.85888 2.21689C4.82794 2.14306 4.78262 2.07612 4.72555 2.01995L2.88378 0.18015C2.82755 0.123141 2.76054 0.0778685 2.68663 0.0469673C2.61273 0.0160661 2.53341 0.000152588 2.4533 0.000152588C2.37318 0.000152588 2.29386 0.0160661 2.21996 0.0469673C2.14606 0.0778685 2.07904 0.123141 2.02281 0.18015L0.18104 2.01995C0.0691065 2.13446 0.00686929 2.28843 0.00782331 2.44847C0.00877732 2.60852 0.0728458 2.76174 0.186137 2.87491C0.299428 2.98807 0.452809 3.05207 0.613024 3.05303C0.773239 3.05398 0.927372 2.99181 1.042 2.88L1.84248 2.07981V16.5402C1.84248 16.7049 1.908 16.8629 2.02461 16.9794C2.14123 17.0959 2.2994 17.1613 2.46432 17.1613H16.8989L16.0979 17.9576C16.0408 18.0137 15.9955 18.0807 15.9645 18.1545C15.9336 18.2283 15.9177 18.3076 15.9177 18.3876C15.9177 18.4676 15.9336 18.5469 15.9645 18.6207C15.9955 18.6945 16.0408 18.7614 16.0979 18.8176C16.2154 18.9329 16.3735 18.9974 16.5382 18.9974C16.7029 18.9974 16.8611 18.9329 16.9786 18.8176L18.8204 16.9778C18.9355 16.8606 19 16.703 19.0001 16.5389C19.0002 16.3747 18.9359 16.217 18.8209 16.0997Z" fill="#fff"></path> <path data-v-38a88b70="" d="M6.90858 1.92225H7.53042C7.69534 1.92225 7.85351 1.8568 7.97013 1.74031C8.08674 1.62382 8.15226 1.46582 8.15226 1.30107C8.15226 1.13633 8.08674 0.978331 7.97013 0.861839C7.85351 0.745346 7.69534 0.679901 7.53042 0.679901H6.90858C6.74366 0.679901 6.58549 0.745346 6.46888 0.861839C6.35226 0.978331 6.28674 1.13633 6.28674 1.30107C6.28674 1.46582 6.35226 1.62382 6.46888 1.74031C6.58549 1.8568 6.74366 1.92225 6.90858 1.92225Z" fill="#fff"></path> <path data-v-38a88b70="" d="M10.032 1.92225H11.0332C11.1981 1.92225 11.3562 1.8568 11.4729 1.74031C11.5895 1.62382 11.655 1.46582 11.655 1.30107C11.655 1.13633 11.5895 0.978331 11.4729 0.861839C11.3562 0.745346 11.1981 0.679901 11.0332 0.679901H10.032C9.86707 0.679901 9.70891 0.745346 9.59229 0.861839C9.47567 0.978331 9.41016 1.13633 9.41016 1.30107C9.41016 1.46582 9.47567 1.62382 9.59229 1.74031C9.70891 1.8568 9.86707 1.92225 10.032 1.92225Z" fill="#fff"></path> <path data-v-38a88b70="" d="M13.5556 1.92225H14.5567C14.7216 1.92225 14.8798 1.8568 14.9964 1.74031C15.113 1.62382 15.1786 1.46582 15.1786 1.30107C15.1786 1.13633 15.113 0.978331 14.9964 0.861839C14.8798 0.745346 14.7216 0.679901 14.5567 0.679901H13.5556C13.3906 0.679901 13.2325 0.745346 13.1159 0.861839C12.9992 0.978331 12.9337 1.13633 12.9337 1.30107C12.9337 1.46582 12.9992 1.62382 13.1159 1.74031C13.2325 1.8568 13.3906 1.92225 13.5556 1.92225Z" fill="#fff"></path> <path data-v-38a88b70="" d="M17.0593 1.92225C17.0593 2.08699 17.1249 2.24499 17.2415 2.36148C17.3581 2.47798 17.5163 2.54342 17.6812 2.54342C17.8461 2.54342 18.0043 2.47798 18.1209 2.36148C18.2375 2.24499 18.303 2.08699 18.303 1.92225V1.30107C18.303 1.13633 18.2375 0.978331 18.1209 0.861839C18.0043 0.745346 17.8461 0.679901 17.6812 0.679901H17.0593C16.8944 0.679901 16.7363 0.745346 16.6196 0.861839C16.503 0.978331 16.4375 1.13633 16.4375 1.30107C16.4414 1.4646 16.5081 1.62036 16.6239 1.73602C16.7397 1.85169 16.8956 1.91837 17.0593 1.92225Z" fill="#fff"></path> <path data-v-38a88b70="" d="M18.3019 4.42107C18.3019 4.25632 18.2364 4.09833 18.1198 3.98183C18.0032 3.86534 17.845 3.7999 17.6801 3.7999C17.5151 3.7999 17.357 3.86534 17.2404 3.98183C17.1237 4.09833 17.0582 4.25632 17.0582 4.42107V5.42116C17.0582 5.5859 17.1237 5.7439 17.2404 5.86039C17.357 5.97689 17.5151 6.04233 17.6801 6.04233C17.845 6.04233 18.0032 5.97689 18.1198 5.86039C18.2364 5.7439 18.3019 5.5859 18.3019 5.42116V4.42107Z" fill="#fff"></path> <path data-v-38a88b70="" d="M18.3019 7.94087C18.3019 7.77613 18.2364 7.61813 18.1198 7.50164C18.0032 7.38515 17.845 7.3197 17.6801 7.3197C17.5151 7.3197 17.357 7.38515 17.2404 7.50164C17.1237 7.61813 17.0582 7.77613 17.0582 7.94087V8.94096C17.0582 9.10571 17.1237 9.26371 17.2404 9.3802C17.357 9.49669 17.5151 9.56214 17.6801 9.56214C17.845 9.56214 18.0032 9.49669 18.1198 9.3802C18.2364 9.26371 18.3019 9.10571 18.3019 8.94096V7.94087Z" fill="#fff"></path> <path data-v-38a88b70="" d="M17.6801 10.8401C17.5151 10.8401 17.357 10.9055 17.2404 11.022C17.1237 11.1385 17.0582 11.2965 17.0582 11.4612V12.0824C17.0582 12.164 17.0743 12.2448 17.1056 12.3201C17.1368 12.3955 17.1826 12.464 17.2404 12.5216C17.2981 12.5793 17.3667 12.6251 17.4421 12.6563C17.5175 12.6875 17.5984 12.7036 17.6801 12.7036C17.7617 12.7036 17.8426 12.6875 17.918 12.6563C17.9935 12.6251 18.062 12.5793 18.1198 12.5216C18.1775 12.464 18.2233 12.3955 18.2546 12.3201C18.2858 12.2448 18.3019 12.164 18.3019 12.0824V11.4612C18.3034 11.3793 18.2883 11.2978 18.2575 11.2218C18.2268 11.1458 18.1811 11.0767 18.123 11.0188C18.065 10.9608 17.9958 10.9151 17.9197 10.8844C17.8436 10.8537 17.7621 10.8386 17.6801 10.8401Z" fill="#fff"></path> <path data-v-38a88b70="" d="M6.64796 12.9402H13.4741C13.639 12.9402 13.7971 12.8747 13.9138 12.7582C14.0304 12.6417 14.0959 12.4837 14.0959 12.319V5.50133C14.0959 5.33659 14.0304 5.17859 13.9138 5.06209C13.7971 4.9456 13.639 4.88016 13.4741 4.88016H6.64796C6.48304 4.88016 6.32487 4.9456 6.20825 5.06209C6.09164 5.17859 6.02612 5.33659 6.02612 5.50133V12.3201C6.02642 12.4847 6.09207 12.6424 6.20865 12.7586C6.32524 12.8749 6.48323 12.9402 6.64796 12.9402ZM7.24719 6.1225H12.8533V11.7227H7.24719V6.1225Z" fill="#fff"></path></g> <defs data-v-38a88b70=""><clipPath data-v-38a88b70="" id="clip0_72_47"><rect data-v-38a88b70="" width="19" height="19" fill="white"></rect></clipPath></defs></svg>